<svg xmlns="http://www.w3.org/2000/svg" id="Image" height="512" viewBox="0 0 30 30" width="512"><g><path d="m25.028 21.891c.227-.716.432-1.691.432-2.946 0-.926-.198-3.573-.259-4.363.526-.585.799-1.271.799-2.065v-4.193c0-1.564-1.967-2.187-2.325-2.288-.234-.099-.862-.249-2.753-.394-1.277-.481-1.273-.496-1.814-.917-2.609-2.03-4.497-2.585-7.532.043-.893.522-1.702.005-2.617.906l-3.169.872c-.074.034-1.79.852-1.79 2.778v3.192c0 .576.143 1.096.42 1.562.151 1.812-.42 4.126-.42 5.441 0 .483.287.974.69 1.429-.353 1.089-1.69 2.8-1.69 3.95 0 .979.236 2.103 2.073 2.103 1.309 0 2.692-.484 3.438-.484.566 0 4.768.484 6.149.484 2.996 0 6.104-.461 6.391-.504 1.085-.1 1.747.502 2.778.502 2.622 0 3.172-.96 3.172-1.765-.001-1.056-1.349-2.432-1.973-3.343zm-.253-11.232c.088-.032.16-.093.217-.167.002-.002.005-.004.008-.006v2.031c0 1.141-.89 1.917-2.199 2.44.338-1.185.349-2.44-.514-3.327.996-.197 1.847-.506 2.488-.971zm.11-1.66c-.314-.572-.873-.88-1.231-.975-.305-.098-.741-.83-.987-1.194 1.402.21 2.703.832 2.218 2.169zm-19.885.325c0-1.272 1.151-1.842 1.132-1.842l1.809-.494c-.201.258-.416.489-.691.647-.573.33-.074 1.196.5.866 1.098-.632 1.466-1.882 2.146-2.312.267-.169 1.357-.075 2.185-.557.298-.175 1.622-1.632 3.41-1.632 1.057 0 2.275.948 3.003 1.515.524.408.628.521 1.92 1.004.44.165 1.043.39 1.182.542.43.469.894 1.638 1.771 1.921.131.038.729.255.744.946-2.145 1.436-13.509 1.574-17.38-.17-.604-.27-1.014.641-.41.912 3.309 1.489 11.268 1.489 14.441 1.181 1.772.356 1.278 3.029.731 3.519-2.05.511-4.596.63-6.492.63-3.735 0-10-.453-10-3.482v-3.194zm18.828 16.675c-.762 0-1.592-.619-2.875-.498-.005.001-.01.004-.015.005s-.009-.001-.014-.001c-.032.005-3.263.496-6.264.496-1.489 0-5.284-.484-6.149-.484-.788 0-2.342.484-3.438.484-.925 0-1.073-.262-1.073-1.103 0-.662.994-2.136 1.473-3.21.733.599 1.518 1.054 1.785 1.202.577.316 1.067-.552.484-.875-1.106-.613-2.742-1.83-2.742-2.496 0-.846.371-2.777.433-4.372 1.694 1.229 4.887 1.853 9.567 1.853 4.409 0 7.496-.554 9.256-1.646.081 1.104.204 2.896.204 3.592 0 2.456-.863 3.758-.871 3.769-.381.552.448 1.105.822.57.011-.015.08-.119.178-.305.35.448 1.411 1.732 1.411 2.254 0 .71-1.662.765-2.172.765z"></path><circle cx="13.5" cy="6.5" r=".5"></circle><circle cx="13.5" cy="9.5" r=".5"></circle><circle cx="15.5" cy="8.5" r=".5"></circle><circle cx="10.5" cy="7.5" r=".5"></circle><circle cx="10.5" cy="9.5" r=".5"></circle></g></svg>