<svg xmlns="http://www.w3.org/2000/svg" id="Line_Expand" height="512" viewBox="0 0 64 64" width="512" data-name="Line Expand"><path d="m59.5 17.331-6.773-3.91 3.116-3.785a1 1 0 0 0 -.272-1.5l-5.2-3a1 1 0 0 0 -1.436.516l-1.72 4.59-6.766-3.911a7.007 7.007 0 0 0 -9.562 2.562 3 3 0 0 0 .259 3.368 25.105 25.105 0 0 0 -3.893 8.139 6.952 6.952 0 0 0 -3.7.925l-6.772 3.91-1.721-4.593a1 1 0 0 0 -1.437-.515l-5.2 3a1 1 0 0 0 -.272 1.5l3.116 3.784-6.767 3.912a7.009 7.009 0 0 0 -2.563 9.562 3 3 0 0 0 3.047 1.46 25.166 25.166 0 0 0 19.716 14.711l7.2.936a1 1 0 0 0 1.052-.608l2.789-6.7a25.012 25.012 0 0 0 1.88-8.4l1.685-.219a25.165 25.165 0 0 0 19.711-14.713 3 3 0 0 0 3.047-1.459 7.009 7.009 0 0 0 -2.564-9.562zm-9.1-9.874 3.151 1.819-2.577 3.131-2-1.153zm-17.638 5.982 6.592 3.806a88.485 88.485 0 0 0 -5.529 11.455c-.307-.49-.628-.973-.971-1.445a3 3 0 0 0 .259-3.369 6.969 6.969 0 0 0 -3.863-3.134 23.089 23.089 0 0 1 3.512-7.313zm-22.313 10.83 3.152-1.82 1.422 3.8-2 1.153zm-6.78 16.616a5 5 0 0 1 1.83-6.83l19.052-11a5.006 5.006 0 0 1 6.83 1.83 1 1 0 0 1 -.366 1.366l-25.98 15a1 1 0 0 1 -1.366-.366zm21.287 15.188a23.163 23.163 0 0 1 -18.145-13.538l6.589-3.806c5.851 9.939 10.852 15.082 14.144 17.681zm-9.817-18.346 7.772-4.487c7.235 12.793 8.182 20.325 8.21 23.2-2.471-1.466-8.521-6.053-15.982-18.713zm18.752 13.187-1 2.413c-.606-4.151-2.56-11.054-8.241-21.089l6.592-3.806a23.159 23.159 0 0 1 2.649 22.482zm1.224-19.87a81.107 81.107 0 0 1 5.974-12.8l7.773 4.488c-4.534 7.692-8.542 12.4-11.547 15.236a25.152 25.152 0 0 0 -2.2-6.924zm3.929 10.037-1.409.183c-.009-.269-.015-.537-.032-.8 3.255-2.836 7.785-7.877 12.993-16.723l6.593 3.806a23.167 23.167 0 0 1 -18.145 13.534zm21.288-15.188a1 1 0 0 1 -1.366.366l-25.981-15a1 1 0 0 1 -.366-1.366 5 5 0 0 1 6.83-1.83l19.053 11a5.006 5.006 0 0 1 1.83 6.83z"></path></svg>