<svg xmlns="http://www.w3.org/2000/svg" id="Capa_1" height="512" viewBox="0 0 512 512" width="512"><g><path d="m235.435 114.359c1.014-3.472.076-7.221-2.451-9.809-2.527-2.587-6.255-3.614-9.75-2.679l-45.331 12.09c6.294-14.414 5.708-31.113-2.527-45.161l-14.768-25.194c-2.798-4.773-8.935-6.376-13.71-3.577-4.774 2.798-6.376 8.937-3.577 13.711l14.768 25.194c7.066 12.052 4.615 27.484-5.958 37.528-13.422 12.749-34.982 13.015-48.062.59-10.258-9.745-12.297-25.083-4.96-37.299l15.465-25.748c2.849-4.744 1.314-10.899-3.431-13.749-4.745-2.849-10.9-1.313-13.748 3.431l-15.463 25.748c-8.399 13.983-9.398 30.44-3.633 44.644l-45.772-12.208c-3.497-.934-7.22.092-9.75 2.679-2.527 2.588-3.465 6.336-2.451 9.809l19.132 65.566c.886 3.034 2.073 5.93 3.512 8.671l-10.444-2.786c-3.497-.932-7.22.092-9.75 2.679-2.527 2.587-3.465 6.336-2.451 9.809l19.132 65.567c.886 3.034 2.073 5.93 3.512 8.671l-10.444-2.786c-3.497-.933-7.22.092-9.75 2.679-2.527 2.587-3.465 6.336-2.451 9.809l19.132 65.567c.886 3.034 2.073 5.93 3.512 8.671l-10.444-2.785c-3.497-.933-7.22.092-9.75 2.679-2.527 2.588-3.465 6.336-2.451 9.809l19.132 65.567c6.062 20.769 25.916 35.274 48.283 35.274 11.295 0 21.727-3.623 30.12-9.724v44.686c0 5.534 4.486 10.02 10.02 10.02 5.533 0 10.02-4.486 10.02-10.02v-44.686c8.393 6.101 18.826 9.724 30.12 9.724 22.367 0 42.221-14.506 48.282-35.275l19.133-65.566c1.014-3.472.076-7.221-2.451-9.809s-6.255-3.614-9.75-2.679l-10.445 2.786c1.439-2.741 2.627-5.637 3.512-8.672l19.133-65.566c1.014-3.473.076-7.221-2.451-9.809-2.527-2.587-6.255-3.613-9.75-2.679l-10.445 2.786c1.439-2.741 2.627-5.637 3.512-8.672l19.133-65.566c1.014-3.472.076-7.221-2.451-9.809s-6.255-3.612-9.75-2.679l-10.445 2.786c1.439-2.741 2.627-5.637 3.512-8.672zm-107.554 275.312c-4.067-5.247-9.223-9.705-15.202-13.024 5.933-3.295 11.112-7.716 15.202-12.975 4.09 5.259 9.269 9.68 15.202 12.975-5.98 3.319-11.136 7.777-15.202 13.024zm-31.937-82.267c12.904 3.442 21.917 14.66 21.917 27.282 0 15.635-13.512 28.355-30.12 28.355-13.519 0-25.463-8.574-29.046-20.85l-14.151-48.496zm41.956 27.281c0-12.622 9.013-23.84 21.917-27.282l51.4-13.709-14.152 48.496c-3.582 12.276-15.525 20.85-29.045 20.85-16.608 0-30.12-12.72-30.12-28.355zm-10.019-28.953c-4.067-5.247-9.223-9.705-15.203-13.024 5.933-3.295 11.113-7.716 15.203-12.975 4.09 5.259 9.269 9.68 15.203 12.975-5.98 3.318-11.137 7.776-15.203 13.024zm-31.937-82.268c12.904 3.442 21.917 14.66 21.917 27.282 0 15.635-13.512 28.355-30.12 28.355-13.519 0-25.463-8.574-29.046-20.85l-14.151-48.496zm41.956 27.282c0-12.622 9.013-23.84 21.917-27.282l51.4-13.709-14.152 48.496c-3.582 12.276-15.525 20.85-29.045 20.85-16.608-.001-30.12-12.72-30.12-28.355zm-10.019-28.954c-4.067-5.247-9.223-9.705-15.203-13.024 5.933-3.295 11.113-7.716 15.203-12.975 4.09 5.259 9.269 9.68 15.203 12.975-5.98 3.319-11.137 7.776-15.203 13.024zm10.019-54.986c0-12.622 9.013-23.84 21.917-27.282l51.4-13.708-14.152 48.495c-3.582 12.276-15.525 20.85-29.045 20.85-16.608-.001-30.12-12.72-30.12-28.355zm-41.956-27.282c12.904 3.442 21.917 14.66 21.917 27.282 0 15.635-13.512 28.355-30.12 28.355-13.519 0-25.463-8.574-29.046-20.85l-14.151-48.495zm-8.203 307.455c-13.519 0-25.463-8.574-29.046-20.849l-14.151-48.496 51.4 13.708c12.904 3.442 21.917 14.66 21.917 27.282 0 15.636-13.512 28.355-30.12 28.355zm109.325-20.849c-3.582 12.276-15.525 20.849-29.045 20.849-16.609 0-30.12-12.72-30.12-28.355 0-12.621 9.013-23.84 21.917-27.282l51.4-13.708z"></path><path d="m491.674 198.298c1.014-3.473.076-7.222-2.451-9.809-2.528-2.588-6.254-3.612-9.75-2.679l-10.444 2.786c1.439-2.741 2.627-5.637 3.513-8.672l19.132-65.566c1.014-3.473.076-7.221-2.451-9.809-2.528-2.587-6.254-3.614-9.75-2.679l-45.33 12.09c6.294-14.414 5.708-31.112-2.528-45.161l-37.427-63.846c-1.789-3.051-5.054-4.933-8.59-4.953-.019 0-.036 0-.054 0-3.517 0-6.778 1.844-8.589 4.861l-38.785 64.574c-8.399 13.983-9.398 30.44-3.633 44.644l-45.772-12.208c-3.497-.934-7.221.092-9.75 2.679-2.527 2.588-3.465 6.337-2.451 9.809l19.133 65.566c.885 3.034 2.073 5.93 3.512 8.672l-10.445-2.786c-3.497-.932-7.221.092-9.75 2.679-2.527 2.588-3.465 6.337-2.451 9.809l19.133 65.566c.885 3.034 2.073 5.93 3.512 8.672l-10.445-2.786c-3.497-.933-7.221.092-9.75 2.679-2.527 2.588-3.465 6.336-2.451 9.809l19.133 65.566c.885 3.034 2.073 5.93 3.512 8.672l-10.445-2.786c-3.497-.933-7.221.092-9.75 2.679-2.527 2.588-3.465 6.337-2.451 9.809l19.133 65.566c6.061 20.769 25.915 35.275 48.282 35.275 11.295 0 21.727-3.623 30.12-9.724v44.686c0 5.534 4.486 10.02 10.02 10.02s10.02-4.486 10.02-10.02v-44.686c8.393 6.101 18.826 9.724 30.12 9.724 22.367 0 42.221-14.505 48.283-35.275l19.132-65.566c1.014-3.473.076-7.221-2.451-9.809-2.528-2.588-6.254-3.614-9.75-2.679l-10.444 2.785c1.439-2.741 2.627-5.637 3.512-8.671l19.132-65.566c1.014-3.473.076-7.222-2.451-9.809-2.528-2.587-6.254-3.613-9.75-2.679l-10.444 2.786c1.439-2.741 2.627-5.637 3.513-8.672zm-107.555 191.373c-4.067-5.247-9.223-9.705-15.202-13.024 5.933-3.295 11.112-7.716 15.202-12.975 4.09 5.259 9.269 9.68 15.202 12.975-5.979 3.319-11.135 7.777-15.202 13.024zm-31.936-82.267c12.904 3.442 21.917 14.66 21.917 27.282 0 15.635-13.512 28.355-30.12 28.355-13.52 0-25.463-8.574-29.045-20.85l-14.152-48.496zm41.956 27.281c0-12.622 9.013-23.84 21.917-27.282l51.4-13.709-14.151 48.495c-3.583 12.276-15.527 20.85-29.046 20.85-16.608.001-30.12-12.719-30.12-28.354zm-10.02-28.953c-4.067-5.247-9.223-9.705-15.203-13.024 5.933-3.295 11.113-7.716 15.203-12.975 4.09 5.259 9.269 9.68 15.203 12.975-5.98 3.318-11.136 7.776-15.203 13.024zm0-109.939c4.09 5.259 9.269 9.68 15.203 12.975-5.979 3.318-11.136 7.776-15.203 13.024-4.067-5.247-9.223-9.705-15.203-13.024 5.934-3.295 11.113-7.716 15.203-12.975zm-31.936 27.671c12.904 3.442 21.917 14.66 21.917 27.282 0 15.635-13.512 28.355-30.12 28.355-13.52 0-25.463-8.574-29.045-20.85l-14.152-48.496zm41.956 27.282c0-12.622 9.013-23.84 21.917-27.282l51.4-13.709-14.151 48.495c-3.583 12.276-15.527 20.85-29.046 20.85-16.608 0-30.12-12.719-30.12-28.354zm59.166-76.436c-3.583 12.276-15.527 20.85-29.046 20.85-16.609 0-30.12-12.72-30.12-28.355 0-12.622 9.013-23.84 21.917-27.282l51.4-13.708zm-97.957-94.557 30.091-50.099 28.888 49.28c7.066 12.053 4.615 27.485-5.957 37.528h-.001c-13.422 12.749-34.982 13.015-48.062.59-10.257-9.744-12.296-25.082-4.959-37.299zm-3.165 59.771c12.904 3.442 21.917 14.66 21.917 27.282 0 15.635-13.512 28.355-30.12 28.355-13.52 0-25.463-8.574-29.045-20.85l-14.152-48.495zm-8.204 307.455c-13.52 0-25.463-8.573-29.045-20.849l-14.152-48.496 51.4 13.708c12.904 3.442 21.917 14.66 21.917 27.282.001 15.636-13.511 28.355-30.12 28.355zm109.326-20.849c-3.583 12.276-15.527 20.85-29.046 20.85-16.609 0-30.12-12.72-30.12-28.355 0-12.621 9.013-23.84 21.917-27.282l51.4-13.708z"></path><circle cx="129.252" cy="10.02" r="10"></circle></g></svg>