<svg xmlns="http://www.w3.org/2000/svg" xmlns:xlink="http://www.w3.org/1999/xlink" id="Capa_1" x="0px" y="0px" viewBox="0 0 437.639 437.639" style="enable-background:new 0 0 437.639 437.639;" xml:space="preserve" width="512" height="512"><g>	<g id="Room_Service">		<path d="M423.987,217.598h-5.664C407.547,131.915,335.8,64.407,247.94,55.403v-13.37c7.028-3.53,11.612-10.569,12-18.424    c0-13.238-14.055-23.609-32-23.609s-32,10.371-32,23.609c0.388,7.855,4.972,14.894,12,18.424v13.37    c-87.857,9.003-159.607,76.512-170.386,162.194h-5.661c-4.418,0-8,3.582-8,8l0.008,1.043    c0.699,23.679,20.139,42.488,43.828,42.406h33.031c-16.264,6.969-29.952,18.835-39.157,33.946    c-5.577-6.77-15.571-7.773-22.382-2.247l-27.637,22.383c-6.868,5.558-7.93,15.631-2.372,22.498    c0.002,0.002,0.003,0.004,0.005,0.006l69.699,86.066c5.548,6.867,15.612,7.936,22.478,2.388c0.009-0.007,0.017-0.014,0.026-0.021    l27.637-22.379v-0.004c6.596-5.303,7.871-14.848,2.897-21.696c37.03-12.372,61.673-0.457,86.692-0.371h0.297    c70.138-0.004,145.227-89.586,150.263-120.57h18.288c23.806,0.755,43.716-17.931,44.472-41.736    c0.018-0.571,0.025-1.142,0.02-1.713C431.987,221.18,428.405,217.598,423.987,217.598L423.987,217.598z M227.94,16.001    c9.617,0,16,4.578,16,7.609s-6.383,7.609-16,7.609s-16-4.578-16-7.609S218.323,16.001,227.94,16.001z M223.94,46.93    c2.652,0.392,5.348,0.392,8,0v7.574c-1.342-0.027-6.658-0.027-8,0V46.93z M220.175,70.68h15.529    c84.599,3.651,155.318,66.157,166.492,146.918H53.68C64.858,136.837,135.58,74.331,220.175,70.68L220.175,70.68z M283.831,292.02    c-6.466-12.521-25.147-12.975-39.227-11.832c-24.525,3.037-49.411-0.821-71.866-11.141h144.074    C307.289,275.098,296.295,282.755,283.831,292.02L283.831,292.02z M91.354,421.633l-69.699-86.07l27.633-22.379l63.466,78.357    l0.057,0.07l6.184,7.635L91.354,421.633z M218.956,373.617h-0.254c-23.592-0.082-53.061-13.579-97.25,3.252L72.279,316.15    c18.347-31.627,46.224-42.999,85.098-34.673c22.687,4.869,33.694,19.205,88.539,14.656c4.513-0.374,24.034-0.771,23.848,3.734    c-0.371,3.496-11.184,14.051-25.625,19.887c-19.707,7.959-59.679-5.246-81.887,1.879c-4.197,1.38-6.48,5.901-5.099,10.098    c1.366,4.151,5.81,6.438,9.982,5.136c17.954-5.742,58.451,7.644,83.004-2.277c9.536-3.93,18.293-9.533,25.857-16.545    c34.78-27.013,61.181-44.301,74.742-48.998h2.122C344.301,296.157,278.109,373.617,218.956,373.617L218.956,373.617z     M387.495,253.047H67.729c-12.155,0.029-22.917-7.852-26.558-19.449h373.738C411.203,245.521,399.973,253.488,387.495,253.047z"></path>		<path d="M159.913,96.258c4.938-2.285,10.035-4.352,15.145-6.145c4.184-1.422,8.728,0.816,10.15,4.999    c1.404,4.13-0.758,8.623-4.861,10.102c-4.625,1.621-9.238,3.492-13.715,5.563c-4.033,1.804-8.765-0.004-10.569-4.037    C154.292,102.78,156,98.13,159.913,96.258L159.913,96.258z"></path>		<path d="M84.975,164.828c12.445-21.806,29.689-40.493,50.426-54.648c3.67-2.463,8.641-1.484,11.103,2.185    c2.433,3.625,1.511,8.531-2.072,11.026c-18.724,12.772-34.296,29.638-45.535,49.32c-2.206,3.828-7.097,5.143-10.925,2.937    C84.185,173.465,82.851,168.648,84.975,164.828L84.975,164.828z"></path>	</g></g></svg>