<svg xmlns="http://www.w3.org/2000/svg" id="icons" height="512" viewBox="0 0 64 64" width="512"><path d="m16.496 64h31.025c.002 0 .004-.001.006-.001 4.952-.013 8.977-4.044 8.977-8.999 0-.004-.002-.006-.002-.01v-39.986c0-4.624-3.505-8.44-7.996-8.942v-5.062c0-.552-.447-1-1-1h-31c-.553 0-1 .448-1 1v5.055c-4.497.5-8.008 4.321-8.008 8.949v39.986c0 .004-.002.006-.002.01 0 4.963 4.037 9 9 9zm1.01-62h29v4.002h-29zm-1.024 5.997c.009 0 .016.005.023.005h30.995c3.861 0 7.002 3.141 7.002 7.002v39.996c0 .003.002.005.002.008-.005 3.855-3.144 6.992-7 6.992h-31.008c-3.856 0-6.995-3.137-7-6.992 0-.003.002-.005.002-.008v-39.996c0-3.857 3.131-6.994 6.984-7.007z"></path><path d="m12.5 50.004h1.002v1.994c-.552.002-.998.448-.998 1 0 .553.447 1 1 1h.023c.254 2.799 2.611 5 5.475 5s5.221-2.201 5.475-5h.025c.553 0 1-.447 1-1s-.447-1-1-1v-1.994h2.002v1.994c-.553 0-1 .447-1 1s.447 1 1 1h.025c.254 2.799 2.611 5 5.475 5s5.221-2.201 5.475-5h.023c.553 0 1-.447 1-1s-.447-1-1-1v-1.994h2.002v1.994c-.552.002-.998.448-.998 1 0 .553.447 1 1 1h.023c.254 2.799 2.611 5 5.475 5s5.221-2.201 5.475-5h.025c.553 0 1-.447 1-1s-.447-1-1-1v-1.994h.996c.553 0 1-.447 1-1v-28.004c0-.552-.447-1-1-1h-.996v-2c.552-.001.998-.448.998-1s-.447-1-1-1h-.023c-.254-2.799-2.611-5-5.475-5s-5.221 2.201-5.475 5h-.025c-.553 0-1 .448-1 1s.447 1 1 1v2h-2.002v-1.999c.553 0 1-.448 1-1s-.447-1-1-1h-.025c-.254-2.799-2.611-5-5.475-5s-5.221 2.201-5.475 5h-.023c-.553 0-1 .448-1 1s.447 1 1 1v1.999h-2.002v-2c.552-.001.998-.448.998-1s-.447-1-1-1h-.023c-.254-2.799-2.611-5-5.475-5s-5.221 2.201-5.475 5h-.025c-.553 0-1 .448-1 1s.447 1 1 1v2h-1.002c-.553 0-1 .448-1 1v28.004c0 .553.447 1 1 1zm10.002 3.494c0 1.93-1.57 3.5-3.5 3.5s-3.5-1.57-3.5-3.5v-3.494h7zm13 0c0 .002.001.004.001.007-.003 1.927-1.571 3.493-3.499 3.493-1.93 0-3.5-1.57-3.5-3.5v-3.494h6.998zm13.002 0c0 1.93-1.57 3.5-3.5 3.5s-3.5-1.57-3.5-3.5v-3.494h7zm-7-36.997c0-1.93 1.57-3.5 3.5-3.5s3.5 1.57 3.5 3.5v3.499h-7zm-13 0c0-.002-.001-.004-.001-.006.003-1.927 1.571-3.494 3.499-3.494 1.93 0 3.5 1.57 3.5 3.5v3.499h-6.998zm-13.002 0c0-1.93 1.57-3.5 3.5-3.5s3.5 1.57 3.5 3.5v3.499h-7zm-2.002 5.499h37v26.004h-.977c-.007 0-.013-.004-.02-.004s-.013.004-.02.004h-8.961c-.007 0-.013-.004-.02-.004s-.013.004-.02.004h-3.963c-.007 0-.013-.004-.02-.004s-.013.004-.02.004h-8.959c-.007 0-.013-.004-.02-.004s-.013.004-.02.004h-3.963c-.007 0-.013-.004-.02-.004s-.013.004-.02.004h-8.961c-.007 0-.013-.004-.02-.004s-.013.004-.02.004h-.976z"></path><path d="m20.53 16.001h-.01c-.552 0-.994.448-.994 1s.452 1 1.005 1c.552 0 1-.448 1-1s-.449-1-1.001-1z"></path><path d="m17.53 16.001h-.01c-.552 0-.994.448-.994 1s.452 1 1.005 1c.552 0 1-.448 1-1s-.449-1-1.001-1z"></path><path d="m33.532 16.001h-.011c-.552 0-.994.448-.994 1s.452 1 1.005 1c.552 0 1-.448 1-1s-.448-1-1-1z"></path><path d="m30.532 16.001h-.011c-.552 0-.994.448-.994 1s.452 1 1.005 1c.552 0 1-.448 1-1s-.448-1-1-1z"></path><path d="m46.532 16.001h-.011c-.552 0-.994.448-.994 1s.452 1 1.005 1c.552 0 1-.448 1-1s-.448-1-1-1z"></path><path d="m43.532 16.001h-.011c-.552 0-.994.448-.994 1s.452 1 1.005 1c.552 0 1-.448 1-1s-.448-1-1-1z"></path><path d="m43.536 53.998c.552 0 1-.447 1-1s-.448-1-1-1h-.011c-.552 0-.994.447-.994 1s.452 1 1.005 1z"></path><path d="m46.536 53.998c.552 0 1-.447 1-1s-.448-1-1-1h-.011c-.552 0-.994.447-.994 1s.452 1 1.005 1z"></path><path d="m30.534 53.998c.552 0 1-.447 1-1s-.448-1-1-1h-.011c-.552 0-.994.447-.994 1s.452 1 1.005 1z"></path><path d="m33.534 53.998c.552 0 1-.447 1-1s-.448-1-1-1h-.011c-.552 0-.994.447-.994 1s.452 1 1.005 1z"></path><path d="m17.534 53.998c.552 0 1-.447 1-1s-.448-1-1-1h-.011c-.552 0-.994.447-.994 1s.452 1 1.005 1z"></path><path d="m20.534 53.998c.552 0 1-.447 1-1s-.448-1-1-1h-.011c-.552 0-.994.447-.994 1s.452 1 1.005 1z"></path><path d="m25.49 33.999c.004 0 .006.002.01.002h13.002c.004 0 .006-.002.01-.002 2.202-.005 3.992-1.797 3.992-3.999 0-2.207-1.795-4.002-4.002-4.002h-13.002c-2.207 0-4.002 1.795-4.002 4.002 0 2.202 1.79 3.994 3.992 3.999zm.01-6.001h13.002c1.104 0 2.002.898 2.002 2.002 0 1.103-.898 2-2.002 2-.002 0-.003.001-.005.001h-12.992c-.002 0-.003-.001-.005-.001-1.104 0-2.002-.897-2.002-2 0-1.104.898-2.002 2.002-2.002z"></path><path d="m25.5 31h13.002c.553 0 1-.448 1-1s-.447-1-1-1h-13.002c-.553 0-1 .448-1 1s.447 1 1 1z"></path><path d="m18.504 38.001h27c.553 0 1-.447 1-1s-.447-1-1-1h-27c-.553 0-1 .447-1 1s.447 1 1 1z"></path><path d="m18.504 41.001h27c.553 0 1-.447 1-1s-.447-1-1-1h-27c-.553 0-1 .447-1 1s.447 1 1 1z"></path><path d="m40.504 42.001h-17.002c-.553 0-1 .447-1 1s.447 1 1 1h17.002c.553 0 1-.447 1-1s-.447-1-1-1z"></path></svg>